#!OML:ASF F:\VICON\USERDATA\INSTALL\rory3\rory3.ASF
:FULLY-SPECIFIED
:DEGREES
144
root 4.75156 18.2339 -3.43906 -1.1518 -2.19426 -5.20314
lowerback 11.703 0.152813 3.98944
upperback -0.160113 0.941467 2.79066
thorax -6.73536 0.3741 0.532108
lowerneck -16.9564 -3.37627 -1.61983
upperneck 18.792 -4.42705 0.859612
head 8.72448 -2.10687 0.00869023
rclavicle 3.13086e-015 8.34896e-015
rhumerus -27.6431 -14.2966 -80.8955
rradius 26.6588
rwrist 4.06088
rhand -17.2823 21.6196
rfingers 7.12502
rthumb 8.96294 -8.17003
lclavicle 3.13086e-015 8.34896e-015
lhumerus -30.7698 -1.57748 84.848
lradius 27.24
lwrist 3.90488
lhand -25.1287 35.0721
lfingers 7.12502
lthumb 1.38724 65.0473
rfemur -10.9711 5.07744 31.1013
rtibia 29.663
rfoot -14.8176 -6.55329
rtoes 9.20522
lfemur -20.4638 2.05057 -15.0506
ltibia 67.7024
lfoot -5.77602 -7.09464
ltoes 5.22797
145
root 4.74784 18.2032 -3.28249 -1.08958 -2.16783 -5.35617
lowerback 11.7659 0.153724 4.20051
upperback -0.140189 0.972248 2.75576
thorax -6.74535 0.381326 0.371071
lowerneck -17.0194 -3.37327 -1.66393
upperneck 18.6676 -4.44374 1.02468
head 8.69882 -2.10022 0.0695494
rclavicle 1.04362e-015 -1.31198e-014
rhumerus -27.43 -13.3239 -81.3424
rradius 27.5757
rwrist 3.40237
rhand -17.3592 21.18
rfingers 7.12502
rthumb 8.88875 -8.61276
lclavicle 1.04362e-015 -1.31198e-014
lhumerus -30.9771 -1.04446 84.6831
lradius 27.3166
lwrist 3.81609
lhand -25.1466 38.8369
lfingers 7.12502
lthumb 1.37001 68.8122
rfemur -10.6998 5.17947 31.3595
rtibia 30.1337
rfoot -15.4656 -6.89488
rtoes 10.0603
lfemur -21.075 2.03668 -14.846
ltibia 67.5351
lfoot -7.07008 -6.00818
ltoes -5.24774
146
root 4.74213 18.204 -3.11886 -1.06305 -2.24405 -5.35177
lowerback 11.9248 0.232875 4.25864
upperback -0.212497 1.09439 2.68244
thorax -6.90702 0.434434 0.239302
lowerneck -16.9385 -3.40899 -1.76187
upperneck 18.5477 -4.50112 1.18543
head 8.65081 -2.11816 0.134988
rclavicle 3.8763e-015 1.35174e-014
rhumerus -27.2529 -12.7156 -81.5478
rradius 27.9921
rwrist 2.87796
rhand -17.2223 21.3803
rfingers 7.12502
rthumb 9.0208 -8.40686
lclavicle 3.8763e-015 1.35174e-014
lhumerus -31.4035 -0.744748 84.627
lradius 27.4007
lwrist 3.95472
lhand -24.3233 33.669
lfingers 7.12502
lthumb 2.16513 63.6377
rfemur -10.1901 5.5438 31.4473
rtibia 30.4312
rfoot -16.124 -7.05414
rtoes 12.2952
lfemur -22.9075 1.94086 -14.9343
ltibia 66.4561
lfoot -6.03171 -5.94896
ltoes -4.06344
147
root 4.74136 18.1576 -2.95948 -1.07805 -2.30055 -5.4988
lowerback 11.9609 0.312339 4.46574
upperback -0.206853 1.2278 2.63578
thorax -6.91297 0.491314 0.0499772
lowerneck -16.7077 -3.5261 -1.7711
upperneck 18.3375 -4.66561 1.21317
head 8.54154 -2.19635 0.131402
rclavicle -1.36167e-014 -3.22031e-014
rhumerus -26.9236 -12.3506 -81.6928
rradius 28.1111
rwrist 2.62567
rhand -17.4503 21.745
rfingers 7.12502
rthumb 8.80083 -8.05147
lclavicle -1.36167e-014 -3.22031e-014
lhumerus -31.561 -0.490084 84.5388
lradius 27.1935
lwrist 3.97637
lhand -23.4193 28.7403
lfingers 7.12502
lthumb 3.03814 58.6984
rfemur -9.64088 6.03034 31.7434
rtibia 30.6191
rfoot -16.6068 -7.3577
rtoes 13.9644
lfemur -24.2216 1.98123 -14.7974
ltibia 65.5634
lfoot -6.22215 -5.34222
ltoes -2.10137
148
root 4.73908 18.145 -2.79452 -1.05448 -2.39905 -5.61311
lowerback 11.898 0.398791 4.68225
upperback -0.121755 1.3574 2.53993
thorax -6.77539 0.548681 -0.195099
lowerneck -16.7717 -3.61231 -1.63213
upperneck 18.2288 -4.80631 1.16422
head 8.51327 -2.25825 0.0749466
rclavicle 1.7667e-014 2.74323e-014
rhumerus -26.5068 -12.2328 -81.8988
rradius 28.3165
rwrist 2.29052
rhand -17.4445 20.1284
rfingers 7.12502
rthumb 8.80638 -9.66782
lclavicle 1.7667e-014 2.74323e-014
lhumerus -31.4574 -0.0436769 84.2901
lradius 26.874
lwrist 3.83315
lhand -24.4379 28.5311
lfingers 7.12502
lthumb 2.05448 58.501
rfemur -9.0787 5.74962 31.9586
rtibia 30.5267
rfoot -16.8556 -7.37664
rtoes 11.93
lfemur -25.0485 2.10675 -14.6879
ltibia 64.3473
lfoot -6.83774 -4.48886
ltoes -0.789024
149
root 4.7338 18.1409 -2.63139 -1.01764 -2.53709 -5.67408
lowerback 12.0155 0.456386 4.76688
upperback -0.127458 1.44978 2.47812
thorax -6.8409 0.588309 -0.325272
lowerneck -17.0526 -3.54727 -1.57856
upperneck 18.3669 -4.73723 1.20097
head 8.60894 -2.21473 0.0806085
rclavicle 5.75233e-015 -6.75868e-015
rhumerus -26.1935 -11.5004 -82.2
rradius 28.6871
rwrist 1.44389
rhand -17.1167 17.8408
rfingers 7.12502
rthumb 9.12269 -11.9419
lclavicle 5.75233e-015 -6.75868e-015
lhumerus -31.8655 0.234374 84.1836
lradius 26.9639
lwrist 4.76387
lhand -25.8878 25.9333
lfingers 7.12502
lthumb 0.654128 55.912
rfemur -8.57484 5.77174 32.1969
rtibia 30.5418
rfoot -16.9492 -8.04096
rtoes 7.47711
lfemur -25.7459 2.22575 -14.6601
ltibia 63.1867
lfoot -7.53419 -3.36661
ltoes -1.13979
150
root 4.72547 18.1323 -2.47094 -0.988631 -2.71805 -5.94922
lowerback 12.2421 0.525587 4.90957
upperback -0.119151 1.5844 2.57737
thorax -6.95454 0.648375 -0.326856
lowerneck -17.4011 -3.52095 -1.64156
upperneck 18.4356 -4.66708 1.14317
head 8.69366 -2.18906 0.0732605
rclavicle -8.03835e-015 -1.0138e-014
rhumerus -25.8428 -10.4025 -82.4231
rradius 29.3169
rwrist 0.851958
rhand -17.0657 15.1902
rfingers 7.12502
rthumb 9.17198 -14.5904
lclavicle -8.03835e-015 -1.0138e-014
lhumerus -32.3679 0.697199 84.1806
lradius 27.3104
lwrist 5.45576
lhand -26.6468 23.6712
lfingers 7.12502
lthumb -0.0789778 53.6509
rfemur -8.07373 6.12923 32.6769
rtibia 30.6777
rfoot -17.293 -8.6851
rtoes 5.20029
lfemur -26.4357 2.39831 -14.3769
ltibia 62.0309
lfoot -8.01635 -2.22167
ltoes -3.20888
151
root 4.72284 18.1002 -2.31319 -0.943061 -2.68789 -6.1211
lowerback 12.283 0.555276 5.08683
upperback -0.0258957 1.64845 2.59882
thorax -6.87149 0.67663 -0.415348
lowerneck -17.5269 -3.61042 -1.61088
upperneck 18.1689 -4.7692 1.0466
head 8.62323 -2.2461 0.0232787
rclavicle -2.69602e-015 -9.14409e-015
rhumerus -25.4946 -9.62192 -82.6266
rradius 29.9361
rwrist 0.415511
rhand -17.4068 5.90144
rfingers 7.12502
rthumb 8.84278 -23.8933
lclavicle -2.69602e-015 -9.14409e-015
lhumerus -32.6009 1.25831 84.0504
lradius 27.8186
lwrist 4.60477
lhand -26.5594 25.1768
lfingers 7.12502
lthumb 0.00549488 55.1566
rfemur -7.4318 6.53283 32.9904
rtibia 30.6514
rfoot -17.9186 -9.0604
rtoes 7.03059
lfemur -27.2508 2.38416 -14.2075
ltibia 60.7361
lfoot -8.24286 -1.29902
ltoes -3.99261
152
root 4.72549 18.0354 -2.16023 -0.771626 -2.57442 -6.07097
lowerback 12.1189 0.592195 5.07639
upperback -0.0158028 1.68004 2.55091
thorax -6.76528 0.694121 -0.463323
lowerneck -17.2196 -3.63984 -1.64701
upperneck 17.7849 -4.80115 1.06844
head 8.44024 -2.26624 0.0421948
rclavicle -3.31722e-015 1.59028e-015
rhumerus -25.2162 -9.09669 -82.7235
rradius 30.4303
rwrist -0.266177
rhand -18.2646 18.146
rfingers 7.12502
rthumb 8.01499 -11.682
lclavicle -3.31722e-015 1.59028e-015
lhumerus -32.8415 1.6506 83.94
lradius 28.3786
lwrist 3.84585
lhand -25.8046 29.0266
lfingers 7.12502
lthumb 0.734476 59.0051
rfemur -7.03677 6.77204 33.0068
rtibia 30.7496
rfoot -18.6599 -9.17381
rtoes 9.38437
lfemur -28.2798 2.4669 -14.3074
ltibia 59.3874
lfoot -8.52168 -0.496947
ltoes -3.37156
153
root 4.72308 18.0681 -1.9975 -0.596694 -2.5824 -6.1518
lowerback 12.0592 0.669784 5.2532
upperback -0.0397824 1.79947 2.47485
thorax -6.74432 0.745319 -0.662604
lowerneck -17.1654 -3.65746 -1.70268
upperneck 17.6698 -4.83139 1.17495
head 8.39655 -2.27416 0.0853059
rclavicle 1.51201e-014 -2.3059e-014
rhumerus -24.791 -8.88335 -82.7995
rradius 30.7317
rwrist -0.844931
rhand -18.0742 21.083
rfingers 7.12502
rthumb 8.19868 -8.7379
lclavicle 1.51201e-014 -2.3059e-014
lhumerus -33.0218 1.91096 83.8041
lradius 28.3624
lwrist 4.18671
lhand -25.7134 27.7095
lfingers 7.12502
lthumb 0.82259 57.6876
rfemur -6.52576 6.85298 33.1312
rtibia 30.6224
rfoot -19.2471 -9.44579
rtoes 9.12947
lfemur -28.8453 2.19418 -14.2434
ltibia 57.4608
lfoot -8.7379 0.551482
ltoes -2.56922
154
root 4.72113 18.0602 -1.82925 -0.516817 -2.72776 -6.20782
lowerback 12.1159 0.769867 5.359
upperback -0.0130462 1.94289 2.37423
thorax -6.73385 0.81049 -0.853967
lowerneck -17.3798 -3.67547 -1.65657
upperneck 17.6833 -4.88765 1.28234
head 8.44167 -2.28428 0.10268
rclavicle -2.09594e-014 -1.92821e-014
rhumerus -24.5325 -8.63679 -82.9354
rradius 31.1743
rwrist -1.13575
rhand -17.9284 21.1874
rfingers 7.12502
rthumb 8.33945 -8.62796
lclavicle -2.09594e-014 -1.92821e-014
lhumerus -33.3517 1.67586 83.8208
lradius 28.6659
lwrist 5.89765
lhand -26.1108 25.5577
lfingers 7.12502
lthumb 0.438702 55.537
rfemur -5.87086 7.12506 33.2819
rtibia 30.3762
rfoot -19.9414 -9.91755
rtoes 8.26101
lfemur -29.3078 2.27399 -14.1959
ltibia 55.4289
lfoot -8.92236 1.30696
ltoes -3.37574
